<?xml version="1.0" encoding="UTF-8" standalone="no"?>
<!DOCTYPE svg PUBLIC "-//W3C//DTD SVG 1.1//EN" "http://www.w3.org/Graphics/SVG/1.1/DTD/svg11.dtd">
<svg width="100%" height="100%" viewBox="0 0 1600 1000" version="1.1" xmlns="http://www.w3.org/2000/svg" xmlns:xlink="http://www.w3.org/1999/xlink" xml:space="preserve" xmlns:serif="http://www.serif.com/" style="fill-rule:evenodd;clip-rule:evenodd;stroke-linecap:round;stroke-linejoin:round;stroke-miterlimit:1.5;">
    <rect id="Artboard1" x="0" y="0" width="1600" height="1000" style="fill:rgb(20,20,20);"/>
    <clipPath id="_clip1">
        <rect id="Artboard11" serif:id="Artboard1" x="0" y="0" width="1600" height="1000"/>
    </clipPath>
    <g clip-path="url(#_clip1)">
        <g transform="matrix(0.977413,0,0,1.042735,1104.180698,-14.068376)">
            <path d="M495,48.016L495,937.984C495,950.687 483.997,961 470.445,961L32.555,961C19.003,961 8,950.687 8,937.984L8,48.016C8,35.313 19.003,25 32.555,25L470.445,25C483.997,25 495,35.313 495,48.016Z" style="fill:rgb(161,145,241);fill-opacity:0.04;stroke:rgb(161,145,241);stroke-width:0.99px;"/>
        </g>
        <g transform="matrix(1.685832,0,0,1.042735,265.513347,-14.068376)">
            <path d="M495,48.016L495,937.984C495,950.687 488.621,961 480.764,961L22.236,961C14.379,961 8,950.687 8,937.984L8,48.016C8,35.313 14.379,25 22.236,25L480.764,25C488.621,25 495,35.313 495,48.016Z" style="fill:rgb(23,23,23);stroke:rgb(36,36,36);stroke-width:0.71px;"/>
        </g>
        <g>
            <g>
                <g transform="matrix(0.572895,0,0,1.068376,-4.583162,-26.709402)">
                    <rect x="8" y="25" width="487" height="936" style="fill:none;"/>
                </g>
                <g transform="matrix(1,0,0,1,8.594609,12)">
                    <g transform="matrix(1.333333,0,0,1.333333,19.405391,81.333333)">
                        <path d="M21,-46L21,-34C21,-30.689 18.311,-28 15,-28L3,-28C-0.311,-28 -3,-30.689 -3,-34L-3,-46C-3,-49.311 -0.311,-52 3,-52L15,-52C18.311,-52 21,-49.311 21,-46ZM9,-46C5.689,-46 3,-43.311 3,-40C3,-36.689 5.689,-34 9,-34C12.311,-34 15,-36.689 15,-40C15,-43.311 12.311,-46 9,-46Z" style="fill:rgb(235,235,235);"/>
                    </g>
                    <g transform="matrix(2.541082,0,0,2.541082,-58.625413,114.021015)">
                        <text x="45.735px" y="-30.738px" style="font-family:'Helvetica';font-size:12px;fill:rgb(235,235,235);">Y<tspan x="52.637px 59.311px " y="-30.738px -30.738px ">ou</tspan>r</text>
                        <text x="73.461px" y="-30.738px" style="font-family:'Helvetica';font-size:12px;fill:rgb(235,235,235);">platform</text>
                    </g>
                </g>
            </g>
            <g transform="matrix(0.857741,0,0,1,3.414226,-1)">
                <rect x="24" y="131" width="239" height="32" style="fill:rgb(44,44,44);stroke:rgb(235,235,235);stroke-width:1.07px;stroke-linejoin:miter;stroke-miterlimit:1;stroke-dasharray:4.294,4.294,0,0,0,0;"/>
            </g>
            <g transform="matrix(0.966527,0,0,1,0.803347,53)">
                <rect x="24" y="131" width="239" height="32" style="fill:rgb(20,20,20);stroke:rgb(146,146,146);stroke-width:1.02px;stroke-linejoin:miter;stroke-miterlimit:1;stroke-dasharray:4.067,4.067,0,0,0,0;"/>
            </g>
            <g transform="matrix(0.583682,0,0,1,9.991632,109)">
                <rect x="24" y="131" width="239" height="32" style="fill:rgb(20,20,20);stroke:rgb(146,146,146);stroke-width:1.22px;stroke-linejoin:miter;stroke-miterlimit:1;stroke-dasharray:4.886,4.886,0,0,0,0;"/>
            </g>
            <g transform="matrix(0.857741,0,0,1,3.414226,165)">
                <rect x="24" y="131" width="239" height="32" style="fill:rgb(20,20,20);stroke:rgb(146,146,146);stroke-width:1.07px;stroke-linejoin:miter;stroke-miterlimit:1;stroke-dasharray:4.294,4.294,0,0,0,0;"/>
            </g>
            <g transform="matrix(1,0,0,0.345954,-0,292.611195)">
                <rect x="24" y="351" width="231" height="322" style="fill:none;stroke:rgb(161,145,241);stroke-width:2.67px;stroke-linejoin:miter;stroke-miterlimit:1;stroke-dasharray:10.692,10.692,0,0,0,0;"/>
            </g>
            <g transform="matrix(1,0,0,1,0,24)">
                <path d="M24,328L255,328" style="fill:none;stroke:rgb(146,146,146);stroke-width:1px;stroke-linejoin:miter;stroke-miterlimit:1;"/>
            </g>
        </g>
        <g transform="matrix(2.018828,0,0,1,269.048117,-85)">
            <path d="M263,143L263,151C263,157.623 260.337,163 257.056,163L29.944,163C26.663,163 24,157.623 24,151L24,143C24,136.377 26.663,131 29.944,131L257.056,131C260.337,131 263,136.377 263,143Z" style="fill:rgb(23,23,23);stroke:rgb(130,130,130);stroke-width:0.63px;stroke-linejoin:miter;stroke-miterlimit:1;stroke-dasharray:2.511,2.511,0,0,0,0;"/>
        </g>
        <g transform="matrix(1.506276,0,0,9.75,281.349372,-1151.25)">
            <rect x="24" y="131" width="239" height="32" style="fill:rgb(23,23,23);stroke:rgb(130,130,130);stroke-width:0.14px;stroke-linejoin:miter;stroke-miterlimit:1;stroke-dasharray:0.573,0.573,0,0,0,0;"/>
        </g>
        <g transform="matrix(1.358974,0,0,1.358974,-284.589744,30.769231)">
            <path d="M630.654,148.846L603.077,176.423C595.763,169.109 585.843,165 575.5,165C553.975,165 536.5,182.475 536.5,204C536.5,213.159 539.724,222.026 545.606,229.047L515.711,254.093C503.947,240.052 497.5,222.318 497.5,204C497.5,160.951 532.451,126 575.5,126C596.187,126 616.026,134.218 630.654,148.846Z" style="fill:rgb(44,44,44);stroke:rgb(23,23,23);stroke-width:5.89px;stroke-linejoin:miter;stroke-miterlimit:1;"/>
        </g>
        <g transform="matrix(1.358974,0,0,1.358974,-284.589744,30.769231)">
            <path d="M515.749,254.137L545.624,229.069C553.034,237.9 563.972,243 575.5,243C596.231,243 613.339,226.782 614.444,206.081L653.389,208.161C651.177,249.563 616.961,282 575.5,282C552.444,282 530.569,271.8 515.749,254.137Z" style="fill:rgb(44,44,44);stroke:rgb(23,23,23);stroke-width:5.89px;stroke-linejoin:miter;stroke-miterlimit:1;"/>
        </g>
        <g transform="matrix(1.358974,0,0,1.358974,-284.589744,30.769231)">
            <path d="M653.406,207.818L614.453,205.909C614.484,205.273 614.5,204.637 614.5,204C614.5,193.559 610.313,183.553 602.877,176.224L630.253,148.447C645.126,163.106 653.5,183.117 653.5,204C653.5,205.273 653.469,206.546 653.406,207.818Z" style="fill:rgb(44,44,44);stroke:rgb(23,23,23);stroke-width:5.89px;stroke-linejoin:miter;stroke-miterlimit:1;"/>
        </g>
        <g transform="matrix(3.112971,0,0,10.84375,242.788703,-812.53125)">
            <rect x="24" y="131" width="239" height="32" style="fill:rgb(23,23,23);stroke:rgb(130,130,130);stroke-width:0.13px;stroke-linejoin:miter;stroke-miterlimit:1;stroke-dasharray:0.501,0.501,0,0,0,0;"/>
        </g>
        <g transform="matrix(3.112971,0,0,4.03125,242.788703,-66.09375)">
            <rect x="24" y="131" width="239" height="32" style="fill:rgb(23,23,23);stroke:rgb(130,130,130);stroke-width:0.28px;stroke-linejoin:miter;stroke-miterlimit:1;stroke-dasharray:1.111,1.111,0,0,0,0;"/>
        </g>
        <g transform="matrix(1.506276,0,0,9.75,665.349372,-1151.25)">
            <rect x="24" y="131" width="239" height="32" style="fill:rgb(23,23,23);stroke:rgb(130,130,130);stroke-width:0.14px;stroke-linejoin:miter;stroke-miterlimit:1;stroke-dasharray:0.573,0.573,0,0,0,0;"/>
        </g>
        <g transform="matrix(1.786611,0,0,1.8125,1093.621339,-62.9375)">
            <path d="M263,137.621L263,156.379C263,160.033 259.99,163 256.283,163L30.717,163C27.01,163 24,160.033 24,156.379L24,137.621C24,133.967 27.01,131 30.717,131L256.283,131C259.99,131 263,133.967 263,137.621Z" style="fill:rgb(44,44,44);"/>
        </g>
        <g transform="matrix(0.776151,0,0,1.336358,1131.872385,7.055328)">
            <path d="M263,139.98L263,154.02C263,158.976 256.072,163 247.539,163L39.461,163C30.928,163 24,158.976 24,154.02L24,139.98C24,135.024 30.928,131 39.461,131L247.539,131C256.072,131 263,135.024 263,139.98Z" style="fill:rgb(235,235,235);fill-opacity:0.07;"/>
        </g>
        <g transform="matrix(1.791661,0,0,16.328125,1093.293196,-1706.484375)">
            <path d="M263,131.735L263,162.265C263,162.671 259.999,163 256.302,163L30.698,163C27.001,163 24,162.671 24,162.265L24,131.735C24,131.329 27.001,131 30.698,131L256.302,131C259.999,131 263,131.329 263,131.735Z" style="fill:none;stroke:rgb(130,130,130);stroke-width:0.09px;stroke-linejoin:miter;stroke-miterlimit:1;"/>
        </g>
        <g transform="matrix(0.516013,0,0,0.516013,67.0854,229.031672)">
            <text x="24px" y="432px" style="font-family:'Helvetica';font-size:44.613px;fill:rgb(146,146,146);">Onboarding</text>
        </g>
        <g transform="matrix(0.516013,0,0,0.516013,9.7048,166.031672)">
            <text x="24px" y="432px" style="font-family:'Helvetica';font-size:44.613px;fill:rgb(161,145,241);">User</text>
            <text x="131.13px" y="432px" style="font-family:'Helvetica';font-size:44.613px;fill:rgb(161,145,241);">Built</text>
            <text x="230.853px" y="432px" style="font-family:'Helvetica';font-size:44.613px;fill:rgb(161,145,241);">Pages</text>
        </g>
        <g transform="matrix(0.575757,0,0,0.575757,65.59073,252.541434)">
            <text x="24px" y="432px" style="font-family:'Helvetica';font-size:44.613px;fill:rgb(146,146,146);">Deal</text>
            <text x="128.69px" y="432px" style="font-family:'Helvetica';font-size:44.613px;fill:rgb(146,146,146);">tracker</text>
        </g>
        <g transform="matrix(1.207577,0,0,1.207577,32.721314,-93.208942)">
            <g transform="matrix(1,0,0,1,7.070344,433.533132)">
                <path d="M11,4.656L11,9.344C11,10.258 10.258,11 9.344,11L4.656,11C3.742,11 3,10.258 3,9.344L3,4.656C3,3.742 3.742,3 4.656,3L9.344,3C10.258,3 11,3.742 11,4.656Z" style="fill:none;stroke:rgb(146,146,146);stroke-width:2px;stroke-miterlimit:4;"/>
            </g>
            <g transform="matrix(1,0,0,1,7.070344,433.533132)">
                <path d="M7,11L7,15C7,16.097 7.903,17 9,17L13,17" style="fill:none;fill-rule:nonzero;stroke:rgb(146,146,146);stroke-width:2px;stroke-miterlimit:4;"/>
            </g>
            <g transform="matrix(1,0,0,1,7.070344,433.533132)">
                <path d="M21,14.656L21,19.344C21,20.258 20.258,21 19.344,21L14.656,21C13.742,21 13,20.258 13,19.344L13,14.656C13,13.742 13.742,13 14.656,13L19.344,13C20.258,13 21,13.742 21,14.656Z" style="fill:none;stroke:rgb(146,146,146);stroke-width:2px;stroke-miterlimit:4;"/>
            </g>
        </g>
        <g transform="matrix(1.197759,0,0,1.197759,11.821404,-2.27212)">
            <g transform="matrix(1,0,0,1,25.602076,400.910376)">
                <circle cx="12" cy="12" r="10" style="fill:none;stroke:rgb(146,146,146);stroke-width:2px;stroke-miterlimit:4;"/>
            </g>
            <g transform="matrix(1,0,0,1,25.602076,400.910376)">
                <circle cx="12" cy="12" r="6" style="fill:none;stroke:rgb(146,146,146);stroke-width:2px;stroke-miterlimit:4;"/>
            </g>
            <g transform="matrix(1,0,0,1,25.602076,400.910376)">
                <circle cx="12" cy="12" r="2" style="fill:none;stroke:rgb(146,146,146);stroke-width:2px;stroke-miterlimit:4;"/>
            </g>
        </g>
        <g transform="matrix(0.140167,0,0,1,334.135983,15)">
            <rect x="24" y="131" width="239" height="32" style="fill:rgb(44,44,44);"/>
        </g>
        <g transform="matrix(0.479079,0,0,0.75,370.252092,51.75)">
            <rect x="24" y="131" width="239" height="32" style="fill:rgb(44,44,44);"/>
        </g>
        <g transform="matrix(0.926778,0,0,0.75,319.257322,533.75)">
            <rect x="24" y="131" width="239" height="32" style="fill:rgb(44,44,44);"/>
        </g>
        <g transform="matrix(0.633891,0,0,0.75,572.536611,533.75)">
            <rect x="24" y="131" width="239" height="32" style="fill:rgb(44,44,44);"/>
        </g>
        <g transform="matrix(1.144351,0,0,0.75,736.285565,533.75)">
            <rect x="24" y="131" width="239" height="32" style="fill:rgb(44,44,44);"/>
        </g>
        <g transform="matrix(0.495816,0,0,0.75,374.850418,605.75)">
            <rect x="24" y="131" width="239" height="32" style="fill:rgb(44,44,44);"/>
        </g>
        <g transform="matrix(0.495816,0,0,0.75,577.850418,605.75)">
            <rect x="24" y="131" width="239" height="32" style="fill:rgb(44,44,44);"/>
        </g>
        <g transform="matrix(0.985356,0,0,0.75,742.101464,605.75)">
            <rect x="24" y="131" width="239" height="32" style="fill:rgb(44,44,44);"/>
        </g>
        <g transform="matrix(1.479079,0,0,0.75,1129.252092,360.75)">
            <rect x="24" y="131" width="239" height="32" style="fill:rgb(44,44,44);"/>
        </g>
        <g transform="matrix(1.303347,0,0,0.75,1133.469665,408.75)">
            <rect x="24" y="131" width="239" height="32" style="fill:rgb(44,44,44);"/>
        </g>
        <g transform="matrix(1.479079,0,0,0.75,1129.252092,456.75)">
            <rect x="24" y="131" width="239" height="32" style="fill:rgb(44,44,44);"/>
        </g>
        <g transform="matrix(1.600418,0,0,0.75,1126.339958,504.75)">
            <rect x="24" y="131" width="239" height="32" style="fill:rgb(44,44,44);"/>
        </g>
        <g transform="matrix(0.901674,0,0,0.75,1143.109833,552.75)">
            <rect x="24" y="131" width="239" height="32" style="fill:rgb(44,44,44);"/>
        </g>
        <g transform="matrix(1.215481,0,0,0.75,1135.578452,600.75)">
            <rect x="24" y="131" width="239" height="32" style="fill:rgb(44,44,44);"/>
        </g>
        <g transform="matrix(1.089958,0,0,0.75,739.591004,649.75)">
            <rect x="24" y="131" width="239" height="32" style="fill:rgb(44,44,44);"/>
        </g>
        <g transform="matrix(0.951883,0,0,0.75,742.904812,693.75)">
            <rect x="24" y="131" width="239" height="32" style="fill:rgb(44,44,44);"/>
        </g>
        <g transform="matrix(0.780335,0,0,0.75,747.021967,737.75)">
            <rect x="24" y="131" width="239" height="32" style="fill:rgb(44,44,44);"/>
        </g>
        <g transform="matrix(1.089958,0,0,0.75,739.591004,781.75)">
            <rect x="24" y="131" width="239" height="32" style="fill:rgb(44,44,44);"/>
        </g>
        <g transform="matrix(0.59205,0,0,0.75,575.540795,649.75)">
            <rect x="24" y="131" width="239" height="32" style="fill:rgb(44,44,44);"/>
        </g>
        <g transform="matrix(0.387029,0,0,0.75,580.461297,693.75)">
            <rect x="24" y="131" width="239" height="32" style="fill:rgb(44,44,44);"/>
        </g>
        <g transform="matrix(0.59205,0,0,0.75,575.540795,737.75)">
            <rect x="24" y="131" width="239" height="32" style="fill:rgb(44,44,44);"/>
        </g>
        <g transform="matrix(0.59205,0,0,0.75,575.540795,780.75)">
            <rect x="24" y="131" width="239" height="32" style="fill:rgb(44,44,44);"/>
        </g>
        <g transform="matrix(0.140167,0,0,1,335.385983,352)">
            <rect x="24" y="131" width="239" height="32" style="fill:rgb(44,44,44);"/>
        </g>
        <g transform="matrix(0.813808,0,0,0.75,363.468619,388.75)">
            <rect x="24" y="131" width="239" height="32" style="fill:rgb(44,44,44);"/>
        </g>
        <g transform="matrix(0.140167,0,0,1,718.760983,15)">
            <rect x="24" y="131" width="239" height="32" style="fill:rgb(44,44,44);"/>
        </g>
        <g transform="matrix(0.140167,0,0,1,338.135983,569)">
            <rect x="24" y="131" width="239" height="32" style="fill:rgb(44,44,44);"/>
        </g>
        <g transform="matrix(0.730126,0,0,0.75,369.226987,650.25)">
            <rect x="24" y="131" width="239" height="32" style="fill:rgb(44,44,44);"/>
        </g>
        <g transform="matrix(0.140167,0,0,1,338.135983,613.5)">
            <rect x="24" y="131" width="239" height="32" style="fill:rgb(44,44,44);"/>
        </g>
        <g transform="matrix(0.633891,0,0,0.75,371.536611,694.25)">
            <rect x="24" y="131" width="239" height="32" style="fill:rgb(44,44,44);"/>
        </g>
        <g transform="matrix(0.140167,0,0,1,338.135983,657.5)">
            <rect x="24" y="131" width="239" height="32" style="fill:rgb(44,44,44);"/>
        </g>
        <g transform="matrix(0.671548,0,0,0.75,370.632845,738.25)">
            <rect x="24" y="131" width="239" height="32" style="fill:rgb(44,44,44);"/>
        </g>
        <g transform="matrix(0.140167,0,0,1,338.135983,701.5)">
            <rect x="24" y="131" width="239" height="32" style="fill:rgb(44,44,44);"/>
        </g>
        <g transform="matrix(0.399582,0,0,0.75,377.160042,782.25)">
            <rect x="24" y="131" width="239" height="32" style="fill:rgb(44,44,44);"/>
        </g>
        <g transform="matrix(0.140167,0,0,1,338.135983,745.5)">
            <rect x="24" y="131" width="239" height="32" style="fill:rgb(44,44,44);"/>
        </g>
        <g transform="matrix(0.776151,0,0,0.75,746.747385,51.75)">
            <rect x="24" y="131" width="239" height="32" style="fill:rgb(44,44,44);"/>
        </g>
        <g transform="matrix(1.056858,0,0,1.053905,-44.776715,-12.721428)">
            <g transform="matrix(-0.00037,0.776151,-0.75,-0.000357,875.678048,195.674921)">
                <rect x="24" y="131" width="239" height="32" style="fill:rgb(44,44,44);"/>
            </g>
            <g transform="matrix(-0.000222,0.466527,-0.75,-0.000357,920.264254,277.105884)">
                <rect x="24" y="131" width="239" height="32" style="fill:rgb(44,44,44);"/>
            </g>
            <g transform="matrix(-0.000288,0.604602,-0.75,-0.000357,964.397623,240.792076)">
                <rect x="24" y="131" width="239" height="32" style="fill:rgb(44,44,44);"/>
            </g>
            <g transform="matrix(-0.000324,0.679916,-0.75,-0.000357,1008.835176,220.984545)">
                <rect x="24" y="131" width="239" height="32" style="fill:rgb(44,44,44);"/>
            </g>
            <g transform="matrix(-0.000162,0.339982,-0.75,-0.000357,1053.792584,310.387238)">
                <rect x="24" y="131" width="239" height="32" style="fill:rgb(44,44,44);"/>
            </g>
            <g transform="matrix(-0.000235,0.492702,-0.75,-0.000357,1097.811719,270.221966)">
                <rect x="24" y="131" width="239" height="32" style="fill:rgb(44,44,44);"/>
            </g>
        </g>
        <path d="M317.5,591L394,533L463,570L537,562L609,534L667,515L689.5,538L723,546L782,566L848,558L906,578L986,574L1061.5,538L1061.5,591L317.5,591Z" style="fill:rgb(44,44,44);"/>
        <g transform="matrix(1.782427,0,0,4.6875,1094.721757,-356.0625)">
            <path d="M263,133.56L263,160.44C263,161.853 259.983,163 256.268,163L30.732,163C27.017,163 24,161.853 24,160.44L24,133.56C24,132.147 27.017,131 30.732,131L256.268,131C259.983,131 263,132.147 263,133.56Z" style="fill:none;stroke:rgb(130,130,130);stroke-width:0.28px;stroke-linejoin:miter;stroke-miterlimit:1;"/>
        </g>
        <g transform="matrix(0.140167,0,0,1,1155.385983,148)">
            <rect x="24" y="131" width="239" height="32" style="fill:rgb(44,44,44);"/>
        </g>
        <g transform="matrix(0.813808,0,0,0.75,1183.468619,184.75)">
            <rect x="24" y="131" width="239" height="32" style="fill:rgb(44,44,44);"/>
        </g>
        <g transform="matrix(0.549731,0,0,0.894737,971.960349,-127.789474)">
            <path d="M317.5,591L394,533L463,570L537,562L609,534L667,515L689.5,538L723,546L782,566L848,558L906,578L986,574L1061.5,538L1061.5,591L317.5,591Z" style="fill:rgb(44,44,44);"/>
        </g>
        <g transform="matrix(1,0,0,1,-11.39823,23)">
            <text x="1144.5px" y="78px" style="font-family:'Helvetica';font-size:44.613px;fill:rgb(235,235,235);">Niche</text>
            <text x="1269.837px" y="78px" style="font-family:'Helvetica';font-size:44.613px;fill:rgb(235,235,235);">Feature</text>
        </g>
        <g transform="matrix(0.578431,0,0,0.578431,472.376107,9.610044)">
            <text x="1144.5px" y="78px" style="font-family:'Helvetica';font-size:44.613px;fill:rgb(161,145,241);">Built</text>
            <text x="1242.564px" y="78px" style="font-family:'Helvetica';font-size:44.613px;fill:rgb(161,145,241);">by</text>
            <text x="1300.96px" y="78px" style="font-family:'Helvetica';font-size:44.613px;fill:rgb(161,145,241);">a</text>
            <text x="1337.049px" y="78px" style="font-family:'Helvetica';font-size:44.613px;fill:rgb(161,145,241);">user</text>
        </g>
        <g transform="matrix(0.578431,0,0,0.578431,495.246835,164.903018)">
            <text x="1144.5px" y="78px" style="font-family:'Helvetica';font-size:44.613px;fill:rgb(161,145,241);">Recent</text>
            <text x="1297.131px" y="78px" style="font-family:'Helvetica';font-size:44.613px;fill:rgb(161,145,241);">Activity</text>
        </g>
        <g transform="matrix(0.578431,0,0,0.578431,746.602669,164.903018)">
            <text x="1144.5px" y="78px" style="font-family:'Helvetica';font-size:44.613px;fill:rgb(146,146,146);">Invoices</text>
        </g>
        <g transform="matrix(0.578431,0,0,0.578431,472.022668,99.610044)">
            <text x="1144.5px" y="78px" style="font-family:'Helvetica';font-size:44.613px;fill:rgb(235,235,235);">V<tspan x="1173.472px 1183.384px " y="78px 78px ">ie</tspan>w</text>
            <text x="1251.691px" y="78px" style="font-family:'Helvetica';font-size:44.613px;fill:rgb(235,235,235);">on</text>
            <text x="1312.592px" y="78px" style="font-family:'Helvetica';font-size:44.613px;fill:rgb(235,235,235);">payment</text>
            <text x="1494.98px" y="78px" style="font-family:'Helvetica';font-size:44.613px;fill:rgb(235,235,235);">provider</text>
            <rect x="1144.5" y="82.461" width="95.913" height="2.231" style="fill:rgb(235,235,235);"/>
            <rect x="1240.413" y="82.461" width="11.278" height="2.231" style="fill:rgb(235,235,235);"/>
            <rect x="1251.691" y="82.461" width="49.623" height="2.231" style="fill:rgb(235,235,235);"/>
            <rect x="1301.314" y="82.461" width="11.278" height="2.231" style="fill:rgb(235,235,235);"/>
            <rect x="1312.592" y="82.461" width="171.11" height="2.231" style="fill:rgb(235,235,235);"/>
            <rect x="1483.702" y="82.461" width="11.278" height="2.231" style="fill:rgb(235,235,235);"/>
            <rect x="1494.98" y="82.461" width="161.176" height="2.231" style="fill:rgb(235,235,235);"/>
        </g>
    </g>
</svg>
